<svg xmlns="http://www.w3.org/2000/svg" xmlns:svg="http://www.w3.org/2000/svg" id="svg4491" width="512" height="512" version="1.1" viewBox="0 0 512 512"><metadata id="metadata4488"/><g id="layer2"><rect style="opacity:1;fill:#4c7000;fill-opacity:1;stroke:#adff01;stroke-width:32;stroke-linecap:round;stroke-linejoin:round;stroke-miterlimit:4;stroke-dasharray:none;stroke-opacity:1" id="rect4677" width="480" height="480" x="16" y="16" ry="112"/></g><g id="layer1" transform="translate(0,-768)"><path style="opacity:1;fill:none;fill-opacity:1;stroke:#adff01;stroke-width:32;stroke-linecap:round;stroke-linejoin:miter;stroke-miterlimit:4;stroke-dasharray:none;stroke-opacity:1" id="path4672" d="m 144,928 c 21.33434,0 42.66766,0 53.33383,18.66618 C 208,965.33235 208,1002.6646 183.99981,1021.3323 159.99963,1040 112.0019,1040 88.00095,1005.3322 64,970.66436 64,901.33184 96.00023,869.33261 c 32.00023,-31.99924 96.00023,-26.6659 152.0002,-2.66575 55.99997,24.00016 103.99946,66.66638 135.99985,71.9991 32.00038,5.33272 48.00032,-26.66716 42.66683,-50.66647 -5.33348,-23.99931 -31.99977,-39.99908 -55.99999,-23.99954 -24.00022,15.99953 -45.33257,63.9973 -45.33294,109.33248 -3.8e-4,45.33517 21.33212,88.00017 37.33226,117.33377 C 378.66658,1119.9999 389.33333,1136 400,1152 378.66667,1141.3333 357.33378,1130.6669 336.00016,1112 314.66654,1093.3332 293.33333,1066.6667 272,1040 257.66667,1090.3333 243.33446,1140.6627 205.9995,1172.6649 168.66455,1204.6671 108.33136,1218.3338 48,1232"/></g></svg>