<svg xmlns="http://www.w3.org/2000/svg" xmlns:svg="http://www.w3.org/2000/svg" id="svg4491" width="586" height="1040" version="1.1" viewBox="0 0 586 1040"><metadata id="metadata4488"/><g id="layer2" transform="translate(37,264)" style="display:inline"><rect style="opacity:1;fill:#4c7000;fill-opacity:1;stroke:#adff01;stroke-width:32;stroke-linecap:round;stroke-linejoin:round;stroke-miterlimit:4;stroke-dasharray:none;stroke-opacity:1" id="rect4677" width="480" height="480" x="16" y="112" ry="112"/></g><g id="layer1" transform="translate(37,-504)"><path style="opacity:1;fill:none;fill-opacity:1;stroke:#adff01;stroke-width:32;stroke-linecap:round;stroke-linejoin:miter;stroke-miterlimit:4;stroke-dasharray:none;stroke-opacity:1" id="path4672" d="m 144,1024 c 21.33434,0 42.66766,0 53.33383,18.6662 C 208,1061.3324 208,1098.6646 183.99981,1117.3323 159.99963,1136 112.0019,1136 88.00095,1101.3322 64,1066.6644 64,997.3318 96.00023,965.33259 c 32.00023,-31.99922 96.00023,-26.66589 152.00021,-2.66572 55.99998,24.00017 103.99946,66.66633 135.99984,71.99913 32.00037,5.3327 48.00032,-26.6672 42.66683,-50.66651 -5.33348,-23.99931 -31.99978,-39.99909 -56,-23.99954 -24.00022,15.99954 -45.33257,63.99735 -45.33294,109.33245 -3.7e-4,45.3352 21.33213,88.0002 37.33227,117.3338 C 378.66658,1215.9999 389.33333,1232 400,1248 378.66667,1237.3333 357.33378,1226.6669 336.00016,1208 314.66654,1189.3332 293.33333,1162.6667 272,1136 257.66667,1186.3333 243.33446,1236.6627 205.9995,1268.6649 168.66455,1300.6671 108.33136,1314.3338 48,1328"/></g><g id="layer3"><text style="font-style:normal;font-variant:normal;font-weight:400;font-stretch:normal;font-size:40px;line-height:150%;font-family:'PT Sans';-inkscape-font-specification:'PT Sans';font-variant-ligatures:normal;font-variant-caps:normal;font-variant-numeric:normal;font-feature-settings:normal;text-align:center;writing-mode:lr-tb;text-anchor:middle;opacity:1;fill:#afff01;fill-opacity:1;stroke:#4b7000;stroke-width:2;stroke-linecap:square;stroke-linejoin:miter;stroke-miterlimit:4;stroke-dasharray:none;stroke-opacity:1" id="text837" x="295" y="64" xml:space="preserve"><tspan id="tspan835" x="295" y="64" style="font-size:56px;line-height:150%;stroke-width:2;stroke-miterlimit:4;stroke-dasharray:none">записная книжка</tspan><tspan id="tspan839" x="295" y="148" style="font-size:56px;line-height:150%;stroke-width:2;stroke-miterlimit:4;stroke-dasharray:none">для релиз-группы</tspan><tspan id="tspan841" x="295" y="232" style="font-size:56px;line-height:150%;stroke-width:2;stroke-miterlimit:4;stroke-dasharray:none">GreenTea-озвучка</tspan><tspan id="tspan843" x="295" y="316" style="font-size:56px;line-height:150%;stroke-width:2;stroke-miterlimit:4;stroke-dasharray:none">дорам и фильмов</tspan></text><text style="font-style:normal;font-variant:normal;font-weight:400;font-stretch:normal;font-size:40px;line-height:125%;font-family:'PT Sans';-inkscape-font-specification:'PT Sans';font-variant-ligatures:normal;font-variant-caps:normal;font-variant-numeric:normal;font-feature-settings:normal;text-align:center;writing-mode:lr-tb;text-anchor:middle;opacity:1;fill:#afff01;fill-opacity:1;stroke:#4b7000;stroke-width:2;stroke-linecap:square;stroke-linejoin:miter;stroke-miterlimit:4;stroke-dasharray:none;stroke-opacity:1" id="text837-1" x="293.556" y="944.855" xml:space="preserve"><tspan id="tspan843-8" x="293.556" y="944.855" style="font-size:56px;line-height:125%;stroke-width:2;stroke-miterlimit:4;stroke-dasharray:none">google play search</tspan><tspan style="font-size:56px;line-height:125%;stroke-width:2;stroke-miterlimit:4;stroke-dasharray:none" id="tspan881" x="293.556" y="1014.855">pub:llll</tspan></text></g></svg>