<svg xmlns="http://www.w3.org/2000/svg" xmlns:svg="http://www.w3.org/2000/svg" xmlns:xlink="http://www.w3.org/1999/xlink" id="svg4491" width="1024" height="500" version="1.1" viewBox="0 0 1024 500"><defs id="defs4485"><linearGradient id="linearGradient1705"><stop style="stop-color:#233400;stop-opacity:1" id="stop1701" offset="0"/><stop style="stop-color:#4c7000;stop-opacity:1" id="stop1703" offset="1"/></linearGradient><filter style="color-interpolation-filters:sRGB" id="filter5058" width="1.5" height="1.5" x="-.25" y="-.25"><feBlend id="feBlend5032" in2="SourceGraphic" mode="screen" result="result1"/><feGaussianBlur id="feGaussianBlur5034" result="result6" stdDeviation="8"/><feComposite id="feComposite5036" in="result6" in2="SourceGraphic" operator="xor"/><feGaussianBlur id="feGaussianBlur5038" result="result2" stdDeviation="5"/><feComposite id="feComposite5040" in2="result1" operator="atop" result="result92"/><feComposite id="feComposite5042" in="result2" in2="result92" operator="xor" result="result4"/><feGaussianBlur id="feGaussianBlur5044" in="result4" result="result3" stdDeviation="1"/><feSpecularLighting id="feSpecularLighting5048" result="result5" specularConstant="1.5" specularExponent="45" surfaceScale="3"><fePointLight id="fePointLight5046" x="-5000" y="-8000" z="20000"/></feSpecularLighting><feComposite id="feComposite5050" in2="SourceGraphic" operator="in" result="result93"/><feComposite id="feComposite5052" in="result3" in2="result93" k2="1" k3="2" operator="arithmetic" result="result94"/><feComposite id="feComposite5054" in="result5" in2="result94" operator="atop" result="result95"/><feBlend id="feBlend5056" in2="result95" mode="screen" result="fbSourceGraphic"/><feColorMatrix id="feColorMatrix5116" in="fbSourceGraphic" result="fbSourceGraphicAlpha" values="0 0 0 -1 0 0 0 0 -1 0 0 0 0 -1 0 0 0 0 1 0"/><feGaussianBlur id="feGaussianBlur5118" in="fbSourceGraphic" result="blur" stdDeviation="2"/><feComposite id="feComposite5120" in="fbSourceGraphic" in2="blur" operator="in" result="composite1"/><feComposite id="feComposite5122" in="composite1" in2="composite1" k2="1" operator="in" result="composite2"/></filter><filter style="color-interpolation-filters:sRGB" id="filter1679" width="1.5" height="1.5" x="-.25" y="-.25"><feBlend id="feBlend1653" in2="SourceGraphic" mode="screen" result="result1"/><feGaussianBlur id="feGaussianBlur1655" result="result6" stdDeviation="8"/><feComposite id="feComposite1657" in="result6" in2="SourceGraphic" operator="xor"/><feGaussianBlur id="feGaussianBlur1659" result="result2" stdDeviation="5"/><feComposite id="feComposite1661" in2="result1" operator="atop" result="result92"/><feComposite id="feComposite1663" in="result2" in2="result92" operator="xor" result="result4"/><feGaussianBlur id="feGaussianBlur1665" in="result4" result="result3" stdDeviation="1"/><feSpecularLighting id="feSpecularLighting1669" result="result5" specularConstant="1.5" specularExponent="45" surfaceScale="3"><fePointLight id="fePointLight1667" x="-5000" y="-8000" z="20000"/></feSpecularLighting><feComposite id="feComposite1671" in2="SourceGraphic" operator="in" result="result93"/><feComposite id="feComposite1673" in="result3" in2="result93" k2="1" k3="2" operator="arithmetic" result="result94"/><feComposite id="feComposite1675" in="result5" in2="result94" operator="atop" result="result95"/><feBlend id="feBlend1677" in2="result95" mode="screen" result="fbSourceGraphic"/><feColorMatrix id="feColorMatrix1681" in="fbSourceGraphic" result="fbSourceGraphicAlpha" values="0 0 0 -1 0 0 0 0 -1 0 0 0 0 -1 0 0 0 0 1 0"/><feGaussianBlur id="feGaussianBlur1683" in="fbSourceGraphic" result="blur" stdDeviation="2"/><feComposite id="feComposite1685" in="fbSourceGraphic" in2="blur" operator="in" result="composite1"/><feComposite id="feComposite1687" in="composite1" in2="composite1" k2="1" operator="in" result="composite2"/></filter><linearGradient id="linearGradient1707" x1="0" x2="1024" y1="262" y2="262" gradientUnits="userSpaceOnUse" xlink:href="#linearGradient1705"/><filter style="color-interpolation-filters:sRGB" id="filter1747"><feGaussianBlur id="feGaussianBlur1721" in="SourceAlpha" result="result0" stdDeviation="2.3"/><feMorphology id="feMorphology1723" in="SourceAlpha" radius="6.6" result="result1"/><feGaussianBlur id="feGaussianBlur1725" in="result1" stdDeviation="8.9"/><feColorMatrix id="feColorMatrix1727" result="result91" values="1 0 0 0 0 0 1 0 0 0 0 0 1 0 0 0 0 0 0.3 0"/><feComposite id="feComposite1729" in="result0" in2="result91" operator="out" result="result2"/><feGaussianBlur id="feGaussianBlur1731" result="result4" stdDeviation="1.7"/><feDiffuseLighting id="feDiffuseLighting1735" surfaceScale="10"><feDistantLight id="feDistantLight1733" azimuth="225" elevation="45"/></feDiffuseLighting><feBlend id="feBlend1737" in2="SourceGraphic" mode="multiply"/><feComposite id="feComposite1739" in2="SourceAlpha" operator="in" result="result3"/><feSpecularLighting id="feSpecularLighting1743" in="result4" specularExponent="17.9" surfaceScale="5"><feDistantLight id="feDistantLight1741" azimuth="225" elevation="45"/></feSpecularLighting><feComposite id="feComposite1745" in2="result3" operator="atop" result="fbSourceGraphic"/><feColorMatrix id="feColorMatrix1773" in="fbSourceGraphic" result="fbSourceGraphicAlpha" values="0 0 0 -1 0 0 0 0 -1 0 0 0 0 -1 0 0 0 0 1 0"/><feFlood id="feFlood1775" flood-color="#000" flood-opacity=".498" in="fbSourceGraphic" result="flood"/><feComposite id="feComposite1777" in="flood" in2="fbSourceGraphic" operator="in" result="composite1"/><feGaussianBlur id="feGaussianBlur1779" in="composite1" result="blur" stdDeviation="6"/><feOffset id="feOffset1781" dx="17" dy="13" result="offset"/><feComposite id="feComposite1783" in="fbSourceGraphic" in2="offset" operator="over" result="composite2"/></filter></defs><metadata id="metadata4488"/><g id="layer2" transform="translate(0,-12)" style="display:inline"><rect style="opacity:1;fill:url(#linearGradient1707);fill-opacity:1;stroke:none;stroke-width:32;stroke-linecap:round;stroke-linejoin:round;stroke-miterlimit:4;stroke-dasharray:none;stroke-opacity:1" id="rect4677" width="1024" height="500" x="0" y="12" ry="0"/></g><g id="layer1" transform="translate(0,-780)" style="display:inline"><path style="display:inline;opacity:1;fill:none;fill-opacity:1;stroke:#adff01;stroke-width:5;stroke-linecap:round;stroke-linejoin:miter;stroke-miterlimit:4;stroke-dasharray:none;stroke-opacity:1;filter:url(#filter1679)" id="path4672-2" d="m 435.49724,1000.2163 c 4.95845,0 9.91664,0 12.39563,4.3383 2.47899,4.3383 2.47899,13.0149 -3.09904,17.3536 -5.57802,4.3386 -16.73347,4.3386 -22.31168,-3.7187 -5.5782,-8.0574 -5.5782,-24.1713 1.85917,-31.60849 7.43737,-7.4372 22.312,-6.19764 35.32732,-0.61959 13.01532,5.57805 24.17116,15.49438 31.60854,16.73378 7.43738,1.2394 11.15607,-6.19802 9.91648,-11.77579 -1.23959,-5.57776 -7.43728,-9.29639 -13.01533,-5.57783 -5.57805,3.71855 -10.53602,14.87402 -10.5361,25.41062 -9e-5,10.5366 4.95796,20.4527 8.67663,27.2703 3.71868,6.8176 6.19778,10.5362 8.67688,14.2549 -4.95821,-2.4791 -9.9163,-4.9581 -14.87458,-9.2966 -4.95828,-4.3385 -9.91646,-10.5362 -14.87467,-16.734 -3.33129,11.6983 -6.66229,23.3956 -19.29246,31.5243 -12.63016,8.1288 -34.55785,12.6867 -56.48465,17.2445 m -1.22214,-100.6679 c 2.47922,-4.29415 4.95832,-8.58807 9.95489,-8.56579 4.99657,0.0223 12.51073,4.36059 13.4791,11.36062 0.96837,7.00004 -4.60936,16.66094 -14.37633,17.46313 -9.76697,0.8022 -23.72202,-7.25475 -26.44413,-17.4143 -2.72211,-10.15955 5.78868,-22.42158 17.12708,-30.90415 11.33839,-8.48257 25.5041,-13.18565 30.29613,-19.00692 4.79202,-5.82127 0.21041,-12.76045 -5.23987,-14.47581 -5.45028,-1.71536 -11.76955,1.79268 -11.33822,8.48269 0.43134,6.69001 7.61324,16.56145 16.73819,21.82985 9.12496,5.26839 20.19156,5.93263 27.95509,6.12095 7.76353,0.18832 12.22354,-0.0993 16.68355,-0.38694 -4.62607,3.05439 -9.25202,6.1087 -15.48839,8.23346 -6.23637,2.12476 -14.08287,3.3198 -21.92939,4.51485 8.46538,8.73413 16.93,17.4675 17.65463,32.46992 0.72463,15.00244 -6.29191,36.27134 -13.30817,57.53934 m -87.79203,-49.2755 c -2.47923,-4.29415 -4.95832,-8.58807 -2.44074,-12.90409 2.51758,-4.31601 10.03174,-8.65431 16.57813,-5.99293 6.5464,2.66139 12.12412,12.32229 7.93535,21.18182 -4.18876,8.8596 -18.14381,16.9165 -28.30329,14.1942 -10.15949,-2.7224 -16.52332,-16.224 -18.20024,-30.28461 -1.67692,-14.06062 1.33294,-28.68003 -1.31241,-35.74068 -2.64536,-7.06065 -10.94566,-6.56244 -15.15635,-2.70004 -4.21069,3.86239 -4.33227,11.08907 1.67712,14.06053 6.00938,2.97145 18.14925,1.68746 27.27429,-3.58078 9.12504,-5.26825 15.23359,-14.52009 19.27845,-21.14934 4.04485,-6.62925 6.02576,-10.63555 8.00667,-14.64185 0.33214,5.53349 0.66428,11.06684 -0.61381,17.53007 -1.2781,6.46324 -4.1664,13.85602 -7.05472,21.24884 11.79667,-2.96417 23.5923,-5.92807 36.94709,0.9456 13.35479,6.87366 28.26594,23.58462 43.17648,40.29486 m -86.56989,51.3924 c -4.95845,0 -9.91664,0 -12.39563,-4.3383 -2.47899,-4.3383 -2.47899,-13.0149 3.09904,-17.3535 5.57802,-4.3387 16.73347,-4.3387 22.31168,3.7187 5.5782,8.0573 5.5782,24.1712 -1.85917,31.6084 -7.43737,7.4372 -22.312,6.1976 -35.32732,0.6196 -13.01532,-5.5781 -24.17116,-15.4944 -31.60854,-16.7338 -7.43738,-1.2394 -11.15607,6.198 -9.91648,11.7758 1.23959,5.5777 7.43728,9.2964 13.01533,5.5778 5.57805,-3.7185 10.53602,-14.874 10.5361,-25.4106 9e-5,-10.5366 -4.95796,-20.4527 -8.67663,-27.2703 -3.71868,-6.8176 -6.19778,-10.5362 -8.67688,-14.2549 4.95821,2.4791 9.9163,4.9581 14.87458,9.2966 4.95828,4.3385 9.91646,10.5362 14.87467,16.734 3.33129,-11.6983 6.66229,-23.3956 19.29246,-31.52432 12.63016,-8.12875 34.55785,-12.68671 56.48465,-17.24448 m 1.22214,100.6679 c -2.47922,4.2941 -4.95832,8.5881 -9.95489,8.5658 -4.99657,-0.022 -12.51073,-4.3606 -13.4791,-11.3606 -0.96837,-7.0001 4.60936,-16.661 14.37633,-17.4632 9.76697,-0.8022 23.72202,7.2548 26.44413,17.4143 2.72211,10.1596 -5.78868,22.4216 -17.12708,30.9042 -11.33839,8.4826 -25.5041,13.1856 -30.29613,19.0069 -4.79202,5.8213 -0.21041,12.7605 5.23987,14.4758 5.45028,1.7154 11.76955,-1.7927 11.33822,-8.4827 -0.43134,-6.69 -7.61324,-16.5614 -16.73819,-21.8298 -9.12496,-5.2684 -20.19156,-5.9327 -27.95509,-6.121 -7.76353,-0.1883 -12.22354,0.099 -16.68355,0.387 4.62607,-3.0544 9.25202,-6.1087 15.48839,-8.2335 6.23637,-2.1247 14.08287,-3.3198 21.92939,-4.5148 -8.46538,-8.7342 -16.93,-17.4675 -17.65463,-32.47 -0.72463,-15.0024 6.29191,-36.2713 13.30817,-57.5393 m 87.79203,49.2755 c 2.47923,4.2941 4.95832,8.5881 2.44074,12.9041 -2.51758,4.316 -10.03174,8.6543 -16.57813,5.9929 -6.5464,-2.6614 -12.12412,-12.3223 -7.93535,-21.1818 4.18876,-8.8596 18.14381,-16.9165 28.30329,-14.1942 10.15949,2.7224 16.52332,16.224 18.20024,30.2846 1.67692,14.0606 -1.33294,28.68 1.31241,35.7407 2.64536,7.0606 10.94566,6.5624 15.15635,2.7 4.21069,-3.8624 4.33227,-11.089 -1.67712,-14.0605 -6.00938,-2.9715 -18.14925,-1.6875 -27.27429,3.5808 -9.12504,5.2682 -15.23359,14.5201 -19.27845,21.1493 -4.04485,6.6293 -6.02576,10.6356 -8.00667,14.6419 -0.33214,-5.5335 -0.66428,-11.0669 0.61381,-17.5301 1.2781,-6.4632 4.1664,-13.856 7.05472,-21.2488 -11.79667,2.9641 -23.5923,5.928 -36.94709,-0.9456 -13.35479,-6.8737 -28.26594,-23.5847 -43.17648,-40.2949"/><path style="opacity:1;fill:none;fill-opacity:1;stroke:#4b7000;stroke-width:21.82299995;stroke-linecap:round;stroke-linejoin:miter;stroke-miterlimit:4;stroke-dasharray:none;stroke-opacity:1;filter:url(#filter1747)" id="path4672" d="m 67.05982,852.51577 c 14.54958,0 29.09846,0 36.37257,12.72995 7.27411,12.72996 7.27411,38.18978 -9.093525,50.92078 -16.367635,12.731 -49.101115,12.731 -65.469275,-10.91176 -16.36816,-23.64275 -16.36816,-70.92611 5.45535,-92.74894 21.82351,-21.82283 65.470199,-18.1856 103.66104,-1.81798 38.19085,16.36763 70.92551,45.46511 92.74913,49.10192 21.82361,3.63681 32.73525,-18.18646 29.09792,-34.5535 -3.63732,-16.36705 -21.82319,-27.27857 -38.19085,-16.36721 -16.36767,10.91137 -30.91589,43.64487 -30.91616,74.56253 -2.6e-4,30.91766 14.54809,60.01435 25.45985,80.01927 10.91175,20.00492 18.18628,30.9167 25.46072,41.82837 C 227.09769,998.00473 212.54909,990.73042 198,978.00001 183.45091,965.26959 168.9021,947.0836 154.3532,928.8975 c -9.77504,34.3263 -19.54931,68.64987 -56.610019,92.502 C 60.682473,1045.2515 -3.6600567,1058.626 -68,1072"/></g><g id="layer3" transform="translate(0,-12)" style="display:inline"><text style="font-style:normal;font-variant:normal;font-weight:400;font-stretch:normal;font-size:64px;line-height:125%;font-family:guicompress;-inkscape-font-specification:guicompress;font-variant-ligatures:normal;font-variant-caps:normal;font-variant-numeric:normal;font-feature-settings:normal;text-align:end;writing-mode:lr-tb;text-anchor:end;opacity:1;fill:none;fill-opacity:1;stroke:#adff01;stroke-width:1;stroke-linecap:round;stroke-linejoin:miter;stroke-miterlimit:4;stroke-dasharray:none;stroke-opacity:1;filter:url(#filter5058)" id="text4998" x="1016.402" y="79.422" xml:space="preserve"><tspan style="font-style:normal;font-variant:normal;font-weight:400;font-stretch:normal;font-size:64px;font-family:guicompress;-inkscape-font-specification:guicompress;text-align:end;text-anchor:end;fill:#4c7000;fill-opacity:1" id="tspan5004" x="1016.402" y="79.422">удобная записная книжка для записи релизов группы</tspan><tspan style="font-style:normal;font-variant:normal;font-weight:400;font-stretch:normal;font-size:64px;font-family:guicompress;-inkscape-font-specification:guicompress;text-align:end;text-anchor:end;fill:#4c7000;fill-opacity:1" id="tspan5030" x="1016.402" y="159.422">Green Tea - озвучка дорам и фильмов</tspan><tspan style="font-style:normal;font-variant:normal;font-weight:400;font-stretch:normal;font-size:64px;font-family:guicompress;-inkscape-font-specification:guicompress;text-align:end;text-anchor:end;fill:#4c7000;fill-opacity:1" id="tspan5016" x="1016.402" y="239.422">-забудьте про возню с закладками</tspan><tspan style="font-style:normal;font-variant:normal;font-weight:400;font-stretch:normal;font-size:64px;font-family:guicompress;-inkscape-font-specification:guicompress;text-align:end;text-anchor:end;fill:#4c7000;fill-opacity:1" id="tspan5018" x="1016.402" y="319.422">-интерактивный раздел избранное</tspan><tspan style="font-style:normal;font-variant:normal;font-weight:400;font-stretch:normal;font-size:64px;font-family:guicompress;-inkscape-font-specification:guicompress;text-align:end;text-anchor:end;fill:#4c7000;fill-opacity:1" id="tspan5020" x="1016.402" y="399.422">-готовые / просмотренные / новые серии</tspan><tspan style="font-style:normal;font-variant:normal;font-weight:400;font-stretch:normal;font-size:64px;font-family:guicompress;-inkscape-font-specification:guicompress;text-align:end;text-anchor:end;fill:#4c7000;fill-opacity:1" id="tspan5022" x="1016.402" y="479.422">-обновление / добавление / удаление / перемещение в одно касание</tspan></text></g></svg>