<?xml version="1.0" encoding="UTF-8" standalone="no"?>
<!-- Created with Inkscape (http://www.inkscape.org/) -->

<svg
   xmlns:dc="http://purl.org/dc/elements/1.1/"
   xmlns:cc="http://creativecommons.org/ns#"
   xmlns:rdf="http://www.w3.org/1999/02/22-rdf-syntax-ns#"
   xmlns:svg="http://www.w3.org/2000/svg"
   xmlns="http://www.w3.org/2000/svg"
   xmlns:xlink="http://www.w3.org/1999/xlink"
   xmlns:sodipodi="http://sodipodi.sourceforge.net/DTD/sodipodi-0.dtd"
   xmlns:inkscape="http://www.inkscape.org/namespaces/inkscape"
   width="1024"
   height="500"
   viewBox="0 0 1024 500"
   version="1.1"
   id="svg4491"
   sodipodi:docname="publish1024500.svg"
   inkscape:version="0.92.1 r15371"
   inkscape:export-filename="D:\hfp\user\greenteatvnote\_temp\publish1024500.png"
   inkscape:export-xdpi="96"
   inkscape:export-ydpi="96">
  <sodipodi:namedview
     id="base"
     pagecolor="#000000"
     bordercolor="#666666"
     borderopacity="1.0"
     inkscape:pageopacity="0"
     inkscape:pageshadow="2"
     inkscape:zoom="0.25"
     inkscape:cx="164"
     inkscape:cy="126.06612"
     inkscape:document-units="px"
     inkscape:current-layer="layer3"
     showgrid="false"
     units="px"
     inkscape:pagecheckerboard="false"
     inkscape:window-width="2416"
     inkscape:window-height="1037"
     inkscape:window-x="131"
     inkscape:window-y="-13"
     inkscape:window-maximized="1"
     inkscape:snap-page="true"
     inkscape:snap-bbox="true"
     inkscape:snap-bbox-midpoints="false"
     showguides="true"
     inkscape:guide-bbox="true"
     guidecolor="#ffffff"
     guideopacity="1"
     guidehicolor="#ff0101"
     guidehiopacity="1"
     inkscape:bbox-nodes="false"
     inkscape:object-nodes="true"
     inkscape:snap-global="false"
     inkscape:lockguides="false"
     inkscape:object-paths="true"
     inkscape:snap-smooth-nodes="true"
     inkscape:snap-nodes="true"
     inkscape:snap-bbox-edge-midpoints="false"
     inkscape:snap-grids="true"
     inkscape:snap-object-midpoints="true"
     inkscape:snap-center="true"
     borderlayer="true">
    <inkscape:grid
       empopacity="0.35294118"
       empcolor="#ffffff"
       opacity="0.2745098"
       color="#ffffff"
       empspacing="4"
       spacingy="25"
       spacingx="64"
       id="grid4495"
       type="xygrid" />
    <inkscape:grid
       type="xygrid"
       id="grid5031"
       spacingx="256"
       spacingy="250"
       color="#fc7802"
       opacity="0.4745098"
       empcolor="#ffff00"
       empopacity="0.6"
       empspacing="2" />
    <sodipodi:guide
       position="0,1120"
       orientation="0,1"
       id="guide5203"
       inkscape:locked="false"
       inkscape:label=""
       inkscape:color="rgb(255,255,255)" />
    <sodipodi:guide
       position="0,160"
       orientation="0,1"
       id="guide5205"
       inkscape:locked="false"
       inkscape:label=""
       inkscape:color="rgb(255,255,255)" />
    <sodipodi:guide
       position="400,1080"
       orientation="0,1"
       id="guide855"
       inkscape:locked="false" />
    <sodipodi:guide
       position="0,960"
       orientation="0,1"
       id="guide863"
       inkscape:locked="false" />
    <sodipodi:guide
       position="464,448"
       orientation="1,0"
       id="guide4679"
       inkscape:locked="false" />
    <sodipodi:guide
       position="384,560"
       orientation="1,0"
       id="guide4681"
       inkscape:locked="false" />
  </sodipodi:namedview>
  <defs
     id="defs4485">
    <linearGradient
       inkscape:collect="always"
       id="linearGradient1705">
      <stop
         style="stop-color:#233400;stop-opacity:1"
         offset="0"
         id="stop1701" />
      <stop
         style="stop-color:#4c7000;stop-opacity:1"
         offset="1"
         id="stop1703" />
    </linearGradient>
    <inkscape:path-effect
       effect="copy_rotate"
       starting_point="445.44894,1028.2017"
       origin="389.46937,1028.2017"
       id="path-effect1651"
       is_visible="true"
       copies_to_360="true"
       fuse_paths="false"
       starting_angle="0"
       rotation_angle="60"
       num_copies="6" />
    <inkscape:path-effect
       effect="bspline"
       id="path-effect4674"
       is_visible="true"
       weight="33.333333"
       steps="2"
       helper_size="0"
       apply_no_weight="true"
       apply_with_weight="true"
       only_selected="false" />
    <filter
       inkscape:label="Clean Edges"
       inkscape:menu="Bevels"
       inkscape:menu-tooltip="Illuminated translucent plastic or glass effect"
       x="-0.25"
       y="-0.25"
       width="1.5"
       height="1.5"
       style="color-interpolation-filters:sRGB;"
       id="filter5058">
      <feBlend
         in2="SourceGraphic"
         mode="screen"
         result="result1"
         id="feBlend5032" />
      <feGaussianBlur
         stdDeviation="8"
         result="result6"
         id="feGaussianBlur5034" />
      <feComposite
         operator="xor"
         in="result6"
         in2="SourceGraphic"
         id="feComposite5036" />
      <feGaussianBlur
         stdDeviation="5"
         result="result2"
         id="feGaussianBlur5038" />
      <feComposite
         operator="atop"
         in2="result1"
         result="result92"
         id="feComposite5040" />
      <feComposite
         operator="xor"
         in="result2"
         result="result4"
         in2="result92"
         id="feComposite5042" />
      <feGaussianBlur
         stdDeviation="1"
         result="result3"
         in="result4"
         id="feGaussianBlur5044" />
      <feSpecularLighting
         surfaceScale="3"
         specularConstant="1.5"
         specularExponent="45"
         result="result5"
         id="feSpecularLighting5048">
        <fePointLight
           x="-5000"
           y="-8000"
           z="20000"
           id="fePointLight5046" />
      </feSpecularLighting>
      <feComposite
         operator="in"
         in2="SourceGraphic"
         result="result93"
         id="feComposite5050" />
      <feComposite
         operator="arithmetic"
         k2="1"
         k3="2"
         in="result3"
         in2="result93"
         result="result94"
         id="feComposite5052" />
      <feComposite
         operator="atop"
         in="result5"
         in2="result94"
         result="result95"
         id="feComposite5054" />
      <feBlend
         mode="screen"
         in2="result95"
         id="feBlend5056"
         result="fbSourceGraphic" />
      <feColorMatrix
         result="fbSourceGraphicAlpha"
         in="fbSourceGraphic"
         values="0 0 0 -1 0 0 0 0 -1 0 0 0 0 -1 0 0 0 0 1 0"
         id="feColorMatrix5116" />
      <feGaussianBlur
         id="feGaussianBlur5118"
         stdDeviation="2"
         result="blur"
         in="fbSourceGraphic" />
      <feComposite
         in2="blur"
         id="feComposite5120"
         in="fbSourceGraphic"
         operator="in"
         result="composite1" />
      <feComposite
         in2="composite1"
         id="feComposite5122"
         in="composite1"
         k2="1"
         operator="in"
         result="composite2" />
    </filter>
    <inkscape:path-effect
       effect="bspline"
       id="path-effect4674-2"
       is_visible="true"
       weight="33.333333"
       steps="2"
       helper_size="0"
       apply_no_weight="true"
       apply_with_weight="true"
       only_selected="false" />
    <filter
       inkscape:label="Clean Edges"
       inkscape:menu="Bevels"
       inkscape:menu-tooltip="Illuminated translucent plastic or glass effect"
       x="-0.25"
       y="-0.25"
       width="1.5"
       height="1.5"
       style="color-interpolation-filters:sRGB;"
       id="filter1679">
      <feBlend
         in2="SourceGraphic"
         mode="screen"
         result="result1"
         id="feBlend1653" />
      <feGaussianBlur
         stdDeviation="8"
         result="result6"
         id="feGaussianBlur1655" />
      <feComposite
         operator="xor"
         in="result6"
         in2="SourceGraphic"
         id="feComposite1657" />
      <feGaussianBlur
         stdDeviation="5"
         result="result2"
         id="feGaussianBlur1659" />
      <feComposite
         operator="atop"
         in2="result1"
         result="result92"
         id="feComposite1661" />
      <feComposite
         operator="xor"
         in="result2"
         result="result4"
         in2="result92"
         id="feComposite1663" />
      <feGaussianBlur
         stdDeviation="1"
         result="result3"
         in="result4"
         id="feGaussianBlur1665" />
      <feSpecularLighting
         surfaceScale="3"
         specularConstant="1.5"
         specularExponent="45"
         result="result5"
         id="feSpecularLighting1669">
        <fePointLight
           x="-5000"
           y="-8000"
           z="20000"
           id="fePointLight1667" />
      </feSpecularLighting>
      <feComposite
         operator="in"
         in2="SourceGraphic"
         result="result93"
         id="feComposite1671" />
      <feComposite
         operator="arithmetic"
         k2="1"
         k3="2"
         in="result3"
         in2="result93"
         result="result94"
         id="feComposite1673" />
      <feComposite
         operator="atop"
         in="result5"
         in2="result94"
         result="result95"
         id="feComposite1675" />
      <feBlend
         mode="screen"
         in2="result95"
         id="feBlend1677"
         result="fbSourceGraphic" />
      <feColorMatrix
         result="fbSourceGraphicAlpha"
         in="fbSourceGraphic"
         values="0 0 0 -1 0 0 0 0 -1 0 0 0 0 -1 0 0 0 0 1 0"
         id="feColorMatrix1681" />
      <feGaussianBlur
         id="feGaussianBlur1683"
         stdDeviation="2"
         result="blur"
         in="fbSourceGraphic" />
      <feComposite
         in2="blur"
         id="feComposite1685"
         in="fbSourceGraphic"
         operator="in"
         result="composite1" />
      <feComposite
         in2="composite1"
         id="feComposite1687"
         in="composite1"
         k2="1"
         operator="in"
         result="composite2" />
    </filter>
    <linearGradient
       inkscape:collect="always"
       xlink:href="#linearGradient1705"
       id="linearGradient1707"
       x1="0"
       y1="262"
       x2="1024"
       y2="262"
       gradientUnits="userSpaceOnUse" />
    <filter
       inkscape:label="Drop Shadow"
       inkscape:menu="Bevels"
       inkscape:menu-tooltip="Soft bevel, slightly depressed middle"
       style="color-interpolation-filters:sRGB;"
       id="filter1747">
      <feGaussianBlur
         stdDeviation="2.3"
         in="SourceAlpha"
         result="result0"
         id="feGaussianBlur1721" />
      <feMorphology
         in="SourceAlpha"
         radius="6.6"
         result="result1"
         id="feMorphology1723" />
      <feGaussianBlur
         stdDeviation="8.9"
         in="result1"
         id="feGaussianBlur1725" />
      <feColorMatrix
         values="1 0 0 0 0 0 1 0 0 0 0 0 1 0 0 0 0 0 0.3 0"
         result="result91"
         id="feColorMatrix1727" />
      <feComposite
         in="result0"
         operator="out"
         result="result2"
         in2="result91"
         id="feComposite1729" />
      <feGaussianBlur
         stdDeviation="1.7"
         result="result4"
         id="feGaussianBlur1731" />
      <feDiffuseLighting
         surfaceScale="10"
         id="feDiffuseLighting1735">
        <feDistantLight
           azimuth="225"
           elevation="45"
           id="feDistantLight1733" />
      </feDiffuseLighting>
      <feBlend
         in2="SourceGraphic"
         mode="multiply"
         id="feBlend1737" />
      <feComposite
         in2="SourceAlpha"
         operator="in"
         result="result3"
         id="feComposite1739" />
      <feSpecularLighting
         in="result4"
         surfaceScale="5"
         specularExponent="17.9"
         id="feSpecularLighting1743">
        <feDistantLight
           azimuth="225"
           elevation="45"
           id="feDistantLight1741" />
      </feSpecularLighting>
      <feComposite
         in2="result3"
         operator="atop"
         id="feComposite1745"
         result="fbSourceGraphic" />
      <feColorMatrix
         result="fbSourceGraphicAlpha"
         in="fbSourceGraphic"
         values="0 0 0 -1 0 0 0 0 -1 0 0 0 0 -1 0 0 0 0 1 0"
         id="feColorMatrix1773" />
      <feFlood
         id="feFlood1775"
         flood-opacity="0.498039"
         flood-color="rgb(0,0,0)"
         result="flood"
         in="fbSourceGraphic" />
      <feComposite
         in2="fbSourceGraphic"
         id="feComposite1777"
         in="flood"
         operator="in"
         result="composite1" />
      <feGaussianBlur
         id="feGaussianBlur1779"
         in="composite1"
         stdDeviation="6"
         result="blur" />
      <feOffset
         id="feOffset1781"
         dx="17"
         dy="13"
         result="offset" />
      <feComposite
         in2="offset"
         id="feComposite1783"
         in="fbSourceGraphic"
         operator="over"
         result="composite2" />
    </filter>
  </defs>
  <metadata
     id="metadata4488">
    <rdf:RDF>
      <cc:Work
         rdf:about="">
        <dc:format>image/svg+xml</dc:format>
        <dc:type
           rdf:resource="http://purl.org/dc/dcmitype/StillImage" />
        <dc:title />
      </cc:Work>
    </rdf:RDF>
  </metadata>
  <g
     inkscape:groupmode="layer"
     id="layer2"
     inkscape:label="fon"
     style="display:inline"
     transform="translate(0,-12)"
     sodipodi:insensitive="true">
    <rect
       style="opacity:1;fill:url(#linearGradient1707);fill-opacity:1;stroke:none;stroke-width:32;stroke-linecap:round;stroke-linejoin:round;stroke-miterlimit:4;stroke-dasharray:none;stroke-opacity:1"
       id="rect4677"
       width="1024"
       height="500"
       x="0"
       y="12"
       ry="0" />
  </g>
  <g
     inkscape:groupmode="layer"
     id="layer1"
     inkscape:label="Layer 1"
     transform="translate(0,-780)"
     style="display:inline"
     sodipodi:insensitive="true">
    <path
       style="display:inline;opacity:1;fill:none;fill-opacity:1;stroke:#adff01;stroke-width:5;stroke-linecap:round;stroke-linejoin:miter;stroke-miterlimit:4;stroke-dasharray:none;stroke-opacity:1;filter:url(#filter1679)"
       d="m 435.49724,1000.2163 c 4.95845,0 9.91664,0 12.39563,4.3383 2.47899,4.3383 2.47899,13.0149 -3.09904,17.3536 -5.57802,4.3386 -16.73347,4.3386 -22.31168,-3.7187 -5.5782,-8.0574 -5.5782,-24.1713 1.85917,-31.60849 7.43737,-7.4372 22.312,-6.19764 35.32732,-0.61959 13.01532,5.57805 24.17116,15.49438 31.60854,16.73378 7.43738,1.2394 11.15607,-6.19802 9.91648,-11.77579 -1.23959,-5.57776 -7.43728,-9.29639 -13.01533,-5.57783 -5.57805,3.71855 -10.53602,14.87402 -10.5361,25.41062 -9e-5,10.5366 4.95796,20.4527 8.67663,27.2703 3.71868,6.8176 6.19778,10.5362 8.67688,14.2549 -4.95821,-2.4791 -9.9163,-4.9581 -14.87458,-9.2966 -4.95828,-4.3385 -9.91646,-10.5362 -14.87467,-16.734 -3.33129,11.6983 -6.66229,23.3956 -19.29246,31.5243 -12.63016,8.1288 -34.55785,12.6867 -56.48465,17.2445 m -1.22214,-100.6679 c 2.47922,-4.29415 4.95832,-8.58807 9.95489,-8.56579 4.99657,0.0223 12.51073,4.36059 13.4791,11.36062 0.96837,7.00004 -4.60936,16.66094 -14.37633,17.46313 -9.76697,0.8022 -23.72202,-7.25475 -26.44413,-17.4143 -2.72211,-10.15955 5.78868,-22.42158 17.12708,-30.90415 11.33839,-8.48257 25.5041,-13.18565 30.29613,-19.00692 4.79202,-5.82127 0.21041,-12.76045 -5.23987,-14.47581 -5.45028,-1.71536 -11.76955,1.79268 -11.33822,8.48269 0.43134,6.69001 7.61324,16.56145 16.73819,21.82985 9.12496,5.26839 20.19156,5.93263 27.95509,6.12095 7.76353,0.18832 12.22354,-0.0993 16.68355,-0.38694 -4.62607,3.05439 -9.25202,6.1087 -15.48839,8.23346 -6.23637,2.12476 -14.08287,3.3198 -21.92939,4.51485 8.46538,8.73413 16.93,17.4675 17.65463,32.46992 0.72463,15.00244 -6.29191,36.27134 -13.30817,57.53934 m -87.79203,-49.2755 c -2.47923,-4.29415 -4.95832,-8.58807 -2.44074,-12.90409 2.51758,-4.31601 10.03174,-8.65431 16.57813,-5.99293 6.5464,2.66139 12.12412,12.32229 7.93535,21.18182 -4.18876,8.8596 -18.14381,16.9165 -28.30329,14.1942 -10.15949,-2.7224 -16.52332,-16.224 -18.20024,-30.28461 -1.67692,-14.06062 1.33294,-28.68003 -1.31241,-35.74068 -2.64536,-7.06065 -10.94566,-6.56244 -15.15635,-2.70004 -4.21069,3.86239 -4.33227,11.08907 1.67712,14.06053 6.00938,2.97145 18.14925,1.68746 27.27429,-3.58078 9.12504,-5.26825 15.23359,-14.52009 19.27845,-21.14934 4.04485,-6.62925 6.02576,-10.63555 8.00667,-14.64185 0.33214,5.53349 0.66428,11.06684 -0.61381,17.53007 -1.2781,6.46324 -4.1664,13.85602 -7.05472,21.24884 11.79667,-2.96417 23.5923,-5.92807 36.94709,0.9456 13.35479,6.87366 28.26594,23.58462 43.17648,40.29486 m -86.56989,51.3924 c -4.95845,0 -9.91664,0 -12.39563,-4.3383 -2.47899,-4.3383 -2.47899,-13.0149 3.09904,-17.3535 5.57802,-4.3387 16.73347,-4.3387 22.31168,3.7187 5.5782,8.0573 5.5782,24.1712 -1.85917,31.6084 -7.43737,7.4372 -22.312,6.1976 -35.32732,0.6196 -13.01532,-5.5781 -24.17116,-15.4944 -31.60854,-16.7338 -7.43738,-1.2394 -11.15607,6.198 -9.91648,11.7758 1.23959,5.5777 7.43728,9.2964 13.01533,5.5778 5.57805,-3.7185 10.53602,-14.874 10.5361,-25.4106 9e-5,-10.5366 -4.95796,-20.4527 -8.67663,-27.2703 -3.71868,-6.8176 -6.19778,-10.5362 -8.67688,-14.2549 4.95821,2.4791 9.9163,4.9581 14.87458,9.2966 4.95828,4.3385 9.91646,10.5362 14.87467,16.734 3.33129,-11.6983 6.66229,-23.3956 19.29246,-31.52432 12.63016,-8.12875 34.55785,-12.68671 56.48465,-17.24448 m 1.22214,100.6679 c -2.47922,4.2941 -4.95832,8.5881 -9.95489,8.5658 -4.99657,-0.022 -12.51073,-4.3606 -13.4791,-11.3606 -0.96837,-7.0001 4.60936,-16.661 14.37633,-17.4632 9.76697,-0.8022 23.72202,7.2548 26.44413,17.4143 2.72211,10.1596 -5.78868,22.4216 -17.12708,30.9042 -11.33839,8.4826 -25.5041,13.1856 -30.29613,19.0069 -4.79202,5.8213 -0.21041,12.7605 5.23987,14.4758 5.45028,1.7154 11.76955,-1.7927 11.33822,-8.4827 -0.43134,-6.69 -7.61324,-16.5614 -16.73819,-21.8298 -9.12496,-5.2684 -20.19156,-5.9327 -27.95509,-6.121 -7.76353,-0.1883 -12.22354,0.099 -16.68355,0.387 4.62607,-3.0544 9.25202,-6.1087 15.48839,-8.2335 6.23637,-2.1247 14.08287,-3.3198 21.92939,-4.5148 -8.46538,-8.7342 -16.93,-17.4675 -17.65463,-32.47 -0.72463,-15.0024 6.29191,-36.2713 13.30817,-57.5393 m 87.79203,49.2755 c 2.47923,4.2941 4.95832,8.5881 2.44074,12.9041 -2.51758,4.316 -10.03174,8.6543 -16.57813,5.9929 -6.5464,-2.6614 -12.12412,-12.3223 -7.93535,-21.1818 4.18876,-8.8596 18.14381,-16.9165 28.30329,-14.1942 10.15949,2.7224 16.52332,16.224 18.20024,30.2846 1.67692,14.0606 -1.33294,28.68 1.31241,35.7407 2.64536,7.0606 10.94566,6.5624 15.15635,2.7 4.21069,-3.8624 4.33227,-11.089 -1.67712,-14.0605 -6.00938,-2.9715 -18.14925,-1.6875 -27.27429,3.5808 -9.12504,5.2682 -15.23359,14.5201 -19.27845,21.1493 -4.04485,6.6293 -6.02576,10.6356 -8.00667,14.6419 -0.33214,-5.5335 -0.66428,-11.0669 0.61381,-17.5301 1.2781,-6.4632 4.1664,-13.856 7.05472,-21.2488 -11.79667,2.9641 -23.5923,5.928 -36.94709,-0.9456 -13.35479,-6.8737 -28.26594,-23.5847 -43.17648,-40.2949"
       id="path4672-2"
       inkscape:connector-curvature="0"
       inkscape:path-effect="#path-effect4674-2;#path-effect1651"
       inkscape:original-d="m 435.49724,1000.2163 c 4.95845,-3e-4 9.91664,-3e-4 14.87462,0 2.4e-4,8.6766 2.4e-4,17.3532 0,26.0305 -11.15605,-2e-4 -22.3115,-2e-4 -33.46791,0 2.3e-4,-16.1147 2.3e-4,-32.2286 0,-48.34255 14.87476,1.23938 29.74939,2.47891 44.62389,3.71866 11.15628,9.91638 22.31213,19.83269 33.4679,29.74929 3.71891,-7.4376 7.43756,-14.875 11.15598,-22.31195 -6.19752,-3.71881 -12.39519,-7.43748 -18.59328,-11.156 -4.95805,11.15593 -9.91603,22.31135 -14.87463,33.46795 4.9586,9.9165 9.91662,19.8326 14.87463,29.7492 2.47935,3.7185 7.4373,11.156 7.4373,11.156 0,0 -9.91617,-4.9584 -14.87463,-7.4373 -4.95797,-6.198 -14.87462,-18.5933 -14.87462,-18.5933 0,0 -6.66217,23.3956 -9.99388,35.0949 -21.9288,4.5579 -43.85648,9.1159 -65.78323,13.6739"
       sodipodi:nodetypes="cccccccccccccccc" />
    <path
       style="opacity:1;fill:none;fill-opacity:1;stroke:#4b7000;stroke-width:21.82299995;stroke-linecap:round;stroke-linejoin:miter;stroke-miterlimit:4;stroke-dasharray:none;stroke-opacity:1;filter:url(#filter1747)"
       d="m 67.05982,852.51577 c 14.54958,0 29.09846,0 36.37257,12.72995 7.27411,12.72996 7.27411,38.18978 -9.093525,50.92078 -16.367635,12.731 -49.101115,12.731 -65.469275,-10.91176 -16.36816,-23.64275 -16.36816,-70.92611 5.45535,-92.74894 21.82351,-21.82283 65.470199,-18.1856 103.66104,-1.81798 38.19085,16.36763 70.92551,45.46511 92.74913,49.10192 21.82361,3.63681 32.73525,-18.18646 29.09792,-34.5535 -3.63732,-16.36705 -21.82319,-27.27857 -38.19085,-16.36721 -16.36767,10.91137 -30.91589,43.64487 -30.91616,74.56253 -2.6e-4,30.91766 14.54809,60.01435 25.45985,80.01927 10.91175,20.00492 18.18628,30.9167 25.46072,41.82837 C 227.09769,998.00473 212.54909,990.73042 198,978.00001 183.45091,965.26959 168.9021,947.0836 154.3532,928.8975 c -9.77504,34.3263 -19.54931,68.64987 -56.610019,92.502 C 60.682473,1045.2515 -3.6600567,1058.626 -68,1072"
       id="path4672"
       inkscape:connector-curvature="0"
       inkscape:path-effect="#path-effect4674"
       inkscape:original-d="m 67.05982,852.51577 c 14.54958,-6.8e-4 29.09846,-6.8e-4 43.64668,0 6.8e-4,25.45991 6.8e-4,50.91973 0,76.38173 -32.73527,-7e-4 -65.46875,-7e-4 -98.20507,0 6.9e-4,-47.28551 6.9e-4,-94.56887 0,-141.85178 43.64708,3.63653 87.29377,7.27375 130.9401,10.91168 32.73594,29.09733 65.4706,58.19481 98.20506,87.2934 10.9124,-21.82412 21.82405,-43.64738 32.73504,-65.47005 -18.18544,-10.91236 -36.37131,-21.82388 -54.55837,-32.73503 -14.54843,32.73482 -29.09666,65.46832 -43.64671,98.20508 14.55005,29.098 29.09839,58.1947 43.64671,87.2934 7.27518,10.911 21.82333,32.735 21.82333,32.735 0,0 -29.09709,-14.5496 -43.6467,-21.8234 -14.54824,-18.1868 -43.64669,-54.5583 -43.64669,-54.5583 0,0 -19.54887,68.65 -29.32513,102.9789 C 60.68232,1045.2508 -3.66021,1058.6253 -68,1072"
       sodipodi:nodetypes="cccccccccccccccc" />
  </g>
  <g
     inkscape:groupmode="layer"
     id="layer3"
     inkscape:label="text"
     transform="translate(0,-12)"
     style="display:inline"
     sodipodi:insensitive="true">
    <text
       xml:space="preserve"
       style="font-style:normal;font-variant:normal;font-weight:normal;font-stretch:normal;font-size:64px;line-height:125%;font-family:guicompress;-inkscape-font-specification:guicompress;font-variant-ligatures:normal;font-variant-caps:normal;font-variant-numeric:normal;font-feature-settings:normal;text-align:end;writing-mode:lr-tb;text-anchor:end;opacity:1;fill:none;fill-opacity:1;stroke:#adff01;stroke-width:1;stroke-linecap:round;stroke-linejoin:miter;stroke-miterlimit:4;stroke-dasharray:none;stroke-opacity:1;filter:url(#filter5058)"
       x="1016.4019"
       y="79.422226"
       id="text4998"><tspan
         sodipodi:role="line"
         x="1016.4019"
         y="79.422226"
         style="font-style:normal;font-variant:normal;font-weight:normal;font-stretch:normal;font-size:64px;font-family:guicompress;-inkscape-font-specification:guicompress;text-align:end;text-anchor:end;fill:#4c7000;fill-opacity:1"
         id="tspan5004">удобная записная книжка для записи релизов группы</tspan><tspan
         sodipodi:role="line"
         x="1016.4019"
         y="159.42223"
         style="font-style:normal;font-variant:normal;font-weight:normal;font-stretch:normal;font-size:64px;font-family:guicompress;-inkscape-font-specification:guicompress;text-align:end;text-anchor:end;fill:#4c7000;fill-opacity:1"
         id="tspan5030">Green Tea - озвучка дорам и фильмов</tspan><tspan
         sodipodi:role="line"
         x="1016.4019"
         y="239.42223"
         style="font-style:normal;font-variant:normal;font-weight:normal;font-stretch:normal;font-size:64px;font-family:guicompress;-inkscape-font-specification:guicompress;text-align:end;text-anchor:end;fill:#4c7000;fill-opacity:1"
         id="tspan5016">-забудьте про возню с закладками</tspan><tspan
         sodipodi:role="line"
         x="1016.4019"
         y="319.42224"
         style="font-style:normal;font-variant:normal;font-weight:normal;font-stretch:normal;font-size:64px;font-family:guicompress;-inkscape-font-specification:guicompress;text-align:end;text-anchor:end;fill:#4c7000;fill-opacity:1"
         id="tspan5018">-интерактивный раздел избранное</tspan><tspan
         sodipodi:role="line"
         x="1016.4019"
         y="399.42224"
         style="font-style:normal;font-variant:normal;font-weight:normal;font-stretch:normal;font-size:64px;font-family:guicompress;-inkscape-font-specification:guicompress;text-align:end;text-anchor:end;fill:#4c7000;fill-opacity:1"
         id="tspan5020">-готовые / просмотренные / новые серии</tspan><tspan
         sodipodi:role="line"
         x="1016.4019"
         y="479.42224"
         style="font-style:normal;font-variant:normal;font-weight:normal;font-stretch:normal;font-size:64px;font-family:guicompress;-inkscape-font-specification:guicompress;text-align:end;text-anchor:end;fill:#4c7000;fill-opacity:1"
         id="tspan5022">-обновление / добавление / удаление / перемещение в одно касание</tspan></text>
  </g>
</svg>
